<?xml version="1.0" encoding="utf-8"?>
<!-- Generator: Adobe Illustrator 15.0.0, SVG Export Plug-In . SVG Version: 6.00 Build 0)  -->
<!DOCTYPE svg PUBLIC "-//W3C//DTD SVG 1.1//EN" "http://www.w3.org/Graphics/SVG/1.1/DTD/svg11.dtd">
<svg version="1.1" id="Ebene_1" xmlns="http://www.w3.org/2000/svg" xmlns:xlink="http://www.w3.org/1999/xlink" x="0px" y="0px"
	 width="476.562px" height="164.062px" viewBox="0 0 476.562 164.062" enable-background="new 0 0 476.562 164.062"
	 xml:space="preserve">
<path fill="#1D1D1B" d="M74.392,96.029c-12.197,0-22.121-10.102-22.121-22.52c0-12.42,9.924-22.521,22.121-22.521
	s22.122,10.102,22.122,22.521C96.514,85.928,86.589,96.029,74.392,96.029 M74.392,43.097c-16.47,0-29.87,13.642-29.87,30.412
	c0,16.768,13.4,30.409,29.87,30.409s29.868-13.641,29.868-30.409C104.26,56.739,90.861,43.097,74.392,43.097"/>
<path fill="#1D1D1B" d="M132.064,95.523h-9.135v-44.07h9.135c12.153,0,22.038,9.883,22.038,22.035
	C154.102,85.639,144.218,95.523,132.064,95.523 M132.064,44.181h-16.233c-0.095,0-0.171,0.079-0.171,0.174v58.264
	c0,0.098,0.076,0.174,0.171,0.174h16.233c16.16,0,29.307-13.146,29.307-29.304C161.371,57.329,148.225,44.181,132.064,44.181"/>
<path fill="#1D1D1B" d="M255.079,86.482c-0.076-0.059-0.182-0.039-0.234,0.037c-3.834,5.512-9.765,8.877-16.275,9.232
	c-5.719,0.314-11.22-1.723-15.487-5.732c-4.269-4.012-6.246-9.506-6.544-15.476c-0.3-5.976,1.114-11.719,4.952-16.166
	c3.84-4.447,9.108-7.069,14.838-7.38c7.14-0.391,13.971,2.938,18.28,8.897c0.029,0.037,0.066,0.061,0.112,0.068
	c0.043,0.007,0.088-0.006,0.125-0.034l5.386-4.24c0.075-0.06,0.09-0.17,0.034-0.247c-5.73-7.921-14.82-12.342-24.309-11.829
	c-15.728,0.86-27.854,14.909-27.032,31.317c0.398,7.95,3.74,15.261,9.409,20.587c5.255,4.939,12.033,7.66,19.082,7.66
	c0.506,0,1.019-0.014,1.525-0.043c8.656-0.471,16.544-4.945,21.64-12.273c0.026-0.037,0.035-0.084,0.03-0.131
	c-0.008-0.047-0.032-0.088-0.068-0.115L255.079,86.482z"/>
<path fill="#1D1D1B" d="M209.254,44.224c-0.032-0.056-0.091-0.093-0.156-0.093h-8.556c-0.054,0-0.105,0.024-0.138,0.071
	l-14.586,20.103l-14.594-20.103c-0.036-0.047-0.086-0.071-0.142-0.071h-8.555c-0.065,0-0.126,0.037-0.156,0.093
	c-0.028,0.058-0.023,0.128,0.013,0.181l19.453,26.922v31.294c0,0.096,0.078,0.174,0.173,0.174h7.615
	c0.097,0,0.174-0.078,0.174-0.174V71.327l19.44-26.922C209.279,44.352,209.283,44.282,209.254,44.224"/>
<path fill="#1D1D1B" d="M311.844,86.482c-0.078-0.059-0.184-0.039-0.236,0.037c-3.857,5.512-9.824,8.877-16.371,9.232
	c-5.767,0.312-11.306-1.725-15.59-5.727c-4.289-4.006-6.279-9.504-6.584-15.482c-0.3-5.976,1.125-11.719,4.988-16.166
	s9.165-7.069,14.927-7.38c7.18-0.391,14.058,2.938,18.392,8.897c0.058,0.076,0.163,0.094,0.241,0.034l5.418-4.24
	c0.075-0.06,0.089-0.17,0.033-0.247c-5.765-7.921-14.908-12.342-24.457-11.829c-7.663,0.416-14.715,3.901-19.851,9.817
	c-5.138,5.915-7.745,13.552-7.343,21.5c0.4,7.95,3.761,15.261,9.465,20.587c5.287,4.939,12.104,7.66,19.195,7.66
	c0.511,0,1.026-0.014,1.536-0.043c8.71-0.471,16.643-4.945,21.77-12.273c0.024-0.037,0.037-0.084,0.029-0.131
	s-0.029-0.088-0.068-0.115L311.844,86.482z"/>
<path fill="#1D1D1B" d="M360.103,44.24h-32.329c-0.098,0-0.176,0.078-0.176,0.174v57.874c0,0.096,0.078,0.174,0.176,0.174h33.936
	c0.095,0,0.171-0.078,0.171-0.174v-6.924c0-0.096-0.076-0.174-0.171-0.174h-26.838V77.123h20.035c0.1,0,0.176-0.076,0.176-0.171
	v-6.925c0-0.097-0.076-0.175-0.176-0.175h-20.035V51.511h25.231c0.095,0,0.171-0.079,0.171-0.174v-6.924
	C360.273,44.318,360.197,44.24,360.103,44.24"/>
<path fill="#1D1D1B" d="M414.663,44.285h-6.927c-0.094,0-0.173,0.08-0.173,0.175v34.235c0,10.637-5.086,16.495-14.327,16.495
	c-9.236,0-14.326-5.857-14.326-16.495V44.459c0-0.095-0.076-0.175-0.171-0.175h-6.926c-0.095,0-0.174,0.08-0.174,0.175v34.235
	c0,7.702,2.13,13.741,6.324,17.948c3.792,3.805,9.076,5.818,15.272,5.818c6.201,0,11.481-2.014,15.278-5.818
	c4.192-4.207,6.319-10.246,6.319-17.948V44.459C414.834,44.365,414.758,44.285,414.663,44.285"/>
<path fill="#1D1D1B" d="M446.393,68.792c-8.446-2.922-12.424-4.795-12.418-9.325c0.008-5.089,4.983-9.229,11.093-9.229
	c5.596,0,10.325,3.478,11.009,8.092c0.005,0.035,0.022,0.065,0.048,0.087c0.031,0.021,0.067,0.029,0.104,0.024l6.894-0.957
	c0.032-0.006,0.066-0.022,0.087-0.051c0.021-0.026,0.032-0.062,0.028-0.095c-1.188-8.048-8.998-14.114-18.169-14.114
	c-10.091,0-18.233,7.281-18.325,16.233c-0.107,10.451,9.09,13.707,17.223,15.942c8.479,2.331,13.39,4.924,13.39,10.665
	c0,4.449-1.292,10.365-12.445,10.365c-3.761,0-7.05-1.254-9.27-3.527c-2.323-2.389-3.42-5.844-3.18-9.994
	c0.005-0.071-0.051-0.134-0.126-0.138l-6.953-0.383c-0.032,0-0.071,0.01-0.096,0.031c-0.025,0.023-0.045,0.056-0.047,0.089
	c-0.357,6.125,1.422,11.386,5.146,15.212c3.595,3.691,8.753,5.725,14.524,5.725c12.506,0,19.677-6.334,19.677-17.381
	C464.586,75.085,454.5,71.595,446.393,68.792"/>
<line fill="none" stroke="#1D1D1B" stroke-width="6" x1="41.584" y1="24.326" x2="119.188" y2="134.797"/>
<line fill="none" stroke="#1D1D1B" stroke-width="6" x1="21.342" y1="107.219" x2="74.393" y2="73.507"/>
<path fill="#FFFFFF" d="M43.171,39.064c7.633,0,13.823-6.19,13.823-13.822c0-7.635-6.189-13.825-13.823-13.825
	S29.35,17.607,29.35,25.242C29.35,32.874,35.538,39.064,43.171,39.064"/>
<circle fill="#1D1D1B" stroke="#1D1D1B" stroke-width="6" cx="43.171" cy="25.24" r="13.824"/>
<path fill="#FFFFFF" d="M20.658,117.174c5.311,0,9.615-4.307,9.615-9.615c0-5.312-4.304-9.615-9.615-9.615s-9.616,4.303-9.616,9.615
	C11.042,112.867,15.347,117.174,20.658,117.174"/>
<circle fill="#1D1D1B" stroke="#1D1D1B" stroke-width="6" cx="20.658" cy="107.559" r="9.615"/>
<path fill="#FFFFFF" d="M73.972,96.126c12.524,0,22.678-10.151,22.678-22.677c0-12.523-10.154-22.677-22.678-22.677
	c-12.522,0-22.676,10.154-22.676,22.677C51.296,85.975,61.45,96.126,73.972,96.126"/>
<circle fill="none" stroke="#1D1D1B" stroke-width="4.7" cx="73.972" cy="73.449" r="27.074"/>
<path fill="#FFFFFF" d="M118.853,154.105c10.664,0,19.308-8.646,19.308-19.309s-8.644-19.305-19.308-19.305
	s-19.307,8.643-19.307,19.305S108.189,154.105,118.853,154.105"/>
<circle fill="#1D1D1B" stroke="#1D1D1B" stroke-width="6" cx="118.853" cy="134.799" r="19.307"/>
</svg>
