<?xml version="1.0" encoding="UTF-8"?>
<svg xmlns="http://www.w3.org/2000/svg" xmlns:xlink="http://www.w3.org/1999/xlink" width="40pt" height="41pt" viewBox="0 0 40 41" version="1.1">
<g id="surface1">
<path style="fill:none;stroke-width:4.7;stroke-linecap:butt;stroke-linejoin:miter;stroke:rgb(11.372549%,11.372549%,10.588235%);stroke-opacity:1;stroke-miterlimit:4;" d="M 31.25325 20.282922 L 80.036073 89.728977 " transform="matrix(0.382835,0,0,0.374391,0,0)"/>
<path style="fill:none;stroke-width:4.7;stroke-linecap:butt;stroke-linejoin:miter;stroke:rgb(11.372549%,11.372549%,10.588235%);stroke-opacity:1;stroke-miterlimit:4;" d="M 18.529514 72.398764 L 51.874477 51.197685 " transform="matrix(0.382835,0,0,0.374391,0,0)"/>
<path style="fill-rule:nonzero;fill:rgb(11.372549%,11.372549%,10.588235%);fill-opacity:1;stroke-width:4.492;stroke-linecap:butt;stroke-linejoin:miter;stroke:rgb(11.372549%,11.372549%,10.588235%);stroke-opacity:1;stroke-miterlimit:4;" d="M 40.93635 20.867204 C 40.93635 25.656227 37.048825 29.547961 32.253191 29.547961 C 27.457557 29.547961 23.559828 25.656227 23.559828 20.867204 C 23.559828 16.057314 27.457557 12.16558 32.253191 12.16558 C 37.048825 12.16558 40.93635 16.057314 40.93635 20.867204 Z M 40.93635 20.867204 " transform="matrix(0.382835,0,0,0.374391,0,0)"/>
<path style="fill-rule:nonzero;fill:rgb(11.372549%,11.372549%,10.588235%);fill-opacity:1;stroke-width:4.492;stroke-linecap:butt;stroke-linejoin:miter;stroke:rgb(11.372549%,11.372549%,10.588235%);stroke-opacity:1;stroke-miterlimit:4;" d="M 24.141427 72.607436 C 24.141427 75.946189 21.437505 78.648492 18.100968 78.648492 C 14.754228 78.648492 12.050306 75.946189 12.050306 72.607436 C 12.050306 69.279117 14.754228 66.566381 18.100968 66.566381 C 21.437505 66.566381 24.141427 69.279117 24.141427 72.607436 Z M 24.141427 72.607436 " transform="matrix(0.382835,0,0,0.374391,0,0)"/>
<path style="fill-rule:nonzero;fill:rgb(100%,100%,100%);fill-opacity:1;stroke-width:4.7;stroke-linecap:butt;stroke-linejoin:miter;stroke:rgb(11.372549%,11.372549%,10.588235%);stroke-opacity:1;stroke-miterlimit:4;" d="M 68.63879 51.166384 C 68.63879 60.56706 61.016792 68.183589 51.609187 68.183589 C 42.211784 68.183589 34.59999 60.56706 34.59999 51.166384 C 34.59999 41.765709 42.211784 34.149179 51.609187 34.149179 C 61.016792 34.149179 68.63879 41.765709 68.63879 51.166384 Z M 68.63879 51.166384 " transform="matrix(0.382835,0,0,0.374391,0,0)"/>
<path style="fill-rule:nonzero;fill:rgb(11.372549%,11.372549%,10.588235%);fill-opacity:1;stroke-width:4.492;stroke-linecap:butt;stroke-linejoin:miter;stroke:rgb(11.372549%,11.372549%,10.588235%);stroke-opacity:1;stroke-miterlimit:4;" d="M 91.963938 89.739411 C 91.963938 96.437783 86.535688 101.87369 79.832004 101.87369 C 73.12832 101.87369 67.689866 96.437783 67.689866 89.739411 C 67.689866 83.030605 73.12832 77.594698 79.832004 77.594698 C 86.535688 77.594698 91.963938 83.030605 91.963938 89.739411 Z M 91.963938 89.739411 " transform="matrix(0.382835,0,0,0.374391,0,0)"/>
</g>
</svg>
